PathFileType	4	(X/Y/Z)	C:\Users\WrightLab\Desktop\Jo\P5V43.trc
DataRate	CameraRate	NumFrames	NumMarkers	Units	OrigDataRate	OrigDataStartFrame	OrigNumFrames
100.00	100.00	       16	19	mm	100.00	216	       860
Frame#	Time	Headset_Front			Headset_Back			Headset_Left			Headset_Right			Left_Shoulder			Right_Shoulder			Sternum			C7			Left Elbow			Right Elbow			Left Wrist			Right Wrist			Left ASIS			Right ASIS			S2			Left Knee			Right Knee			Left Ankle			Right Ankle			
		X1	Y1	Z1	X2	Y2	Z2	X3	Y3	Z3	X4	Y4	Z4	X5	Y5	Z5	X6	Y6	Z6	X7	Y7	Z7	X8	Y8	Z8	X9	Y9	Z9	X10	Y10	Z10	X11	Y11	Z11	X12	Y12	Z12	X13	Y13	Z13	X14	Y14	Z14	X15	Y15	Z15	X16	Y16	Z16	X17	Y17	Z17	X18	Y18	Z18	X19	Y19	Z19	

216	2.150				-276.90695	1502.89917	-1201.85852				-323.45416	1477.18713	-908.55219	-25.86602	1499.93103	-1162.16382													-395.03720	1135.54517	-901.29950	78.48603	948.81921	-1210.44043	-301.83557	991.65247	-706.18665	-29.06959	910.65900	-1107.59131	-303.44162	900.61420	-1010.24030				-40.26695	475.57098	-1103.68994	-361.65237	461.88434	-1161.61121				-322.40671	80.80153	-1324.07666	
217	2.160				-274.99643	1503.39197	-1198.94043				-321.95520	1478.48315	-905.33411	-24.09398	1500.49194	-1158.89148													-394.40414	1136.65808	-899.40118	79.71165	949.42310	-1206.05237	-301.32510	992.51428	-703.51331	-27.83526	911.79858	-1102.82300	-303.01743	901.45813	-1006.84058				-39.07346	475.42371	-1101.87036	-360.87601	462.74640	-1156.04773				-322.15945	82.80759	-1323.23547	
218	2.170				-273.12973	1503.83008	-1195.97156				-320.94910	1479.09814	-902.74225	-22.21393	1500.81836	-1155.17078													-392.82120	1137.72900	-896.69482	82.50758	949.24579	-1202.23096	-301.20142	993.12372	-700.46930	-26.81596	912.03119	-1100.36084	-301.62662	902.38293	-1003.09137				-36.86000	475.73709	-1099.93811	-359.35266	463.60895	-1152.26697				-321.84680	84.31632	-1322.40527	
219	2.180				-271.09875	1504.56726	-1192.91992				-319.75690	1480.04443	-899.87408	-20.54855	1501.14502	-1152.04004													-391.20853	1138.15015	-894.04736	83.13872	950.04401	-1198.05566	-299.73621	994.27728	-698.07214	-26.02960	912.12341	-1095.73096	-301.25153	902.67944	-999.68976				-34.06639	476.61148	-1097.11609	-358.95392	464.07043	-1147.69800				-322.15454	85.81190	-1320.21948	
220	2.190				-269.27658	1505.45044	-1190.65503				-318.60657	1480.61243	-897.38342	-18.76244	1501.77771	-1149.03552													-390.47424	1138.95020	-891.49567	83.80518	951.01611	-1193.64966	-298.62695	995.11139	-695.98877	-25.40267	912.33130	-1091.39893	-300.78445	903.30573	-996.01898				-31.68855	476.64792	-1095.00073	-357.65173	465.41498	-1141.38977				-321.86188	88.13886	-1318.91260	
221	2.200				-267.47870	1505.89758	-1188.19263				-317.55972	1481.46692	-895.07104	-16.93048	1501.53748	-1144.80444													-389.38370	1139.36475	-889.14233	85.86906	952.12689	-1177.93542	-298.79019	995.36377	-693.23511	-23.89373	912.44952	-1089.18604	-300.41757	903.87994	-992.93262				-29.31559	477.23129	-1091.82288	-356.98837	465.84821	-1136.44348				-321.42346	91.80383	-1317.77930	
222	2.210				-265.66415	1506.73340	-1185.76025				-316.55978	1481.95984	-892.72467	-15.41847	1501.73206	-1142.26050													-388.72205	1140.66687	-887.54791	86.63805	952.73480	-1172.26758	-298.26511	995.82288	-691.35931	-23.63521	911.92474	-1085.40613	-300.23425	904.91248	-989.95013				-27.17686	477.51263	-1088.25244	-357.09863	467.32535	-1130.34387				-321.34100	94.99828	-1315.38403	
223	2.220				-263.89883	1507.55542	-1183.49658				-315.49057	1482.65698	-889.74585	-13.80466	1502.40076	-1139.71106													-387.70743	1141.01538	-884.71301	87.37453	951.47461	-1179.16113	-297.61923	996.68945	-689.34320	-20.96846	913.36896	-1080.09106	-300.59235	905.56586	-987.05963				-24.58463	478.20963	-1084.98230	-356.83389	468.15118	-1125.16833				-320.28476	96.77006	-1313.13025	
224	2.230				-262.06470	1508.12427	-1180.67041				-314.56790	1483.52649	-887.49036	-12.12047	1502.03503	-1135.88635													-386.59860	1141.99146	-882.26880	88.93402	952.89758	-1165.66858	-297.00705	996.82324	-687.17957	-20.56970	913.25922	-1076.62732	-301.80347	906.12537	-985.00629				-23.06928	478.14066	-1081.01648	-355.91455	468.22586	-1119.87451				-320.95444	99.86709	-1309.71057	
225	2.240				-260.22989	1508.47546	-1177.37195				-313.76285	1483.85828	-884.87018	-10.40949	1501.94250	-1132.42505													-386.03922	1142.42993	-880.44940	90.67494	953.14600	-1159.49670	-296.40143	996.96100	-685.03754	-20.79888	912.67804	-1073.15356	-302.10977	906.79712	-982.23938				-20.57474	478.43481	-1078.28625	-355.05597	468.79034	-1113.15247				-321.51285	103.28910	-1306.72876	
226	2.250				-258.46756	1509.17578	-1175.17932				-313.00748	1484.39270	-883.19122	-8.82995	1502.75830	-1130.15417													-385.40353	1142.63904	-877.24963	91.39692	953.50464	-1153.96082	-295.23230	997.69781	-682.57318	-19.33063	913.68964	-1069.69104	-303.12994	908.00732	-979.78613				-18.73157	477.99435	-1073.75317	-356.14175	469.66333	-1107.15747	-79.34939	69.66656	-1064.77625	-320.96979	106.00784	-1305.05701	
227	2.260				-256.81924	1509.58521	-1172.82593				-312.12192	1484.77710	-880.73846	-7.03493	1502.04456	-1125.66174										87.37588	1198.87842	-1205.77539	-384.82977	1143.46436	-875.20105	92.59806	953.14984	-1149.71362	-294.65533	998.30176	-680.50043	-18.61947	913.12891	-1066.62781	-302.89584	908.45612	-976.94250				-18.29480	477.36703	-1070.66272	-356.64877	470.78424	-1101.62976	-78.31527	69.80834	-1064.89941	-322.76810	108.07406	-1302.43848	
228	2.270				-255.08258	1510.17456	-1170.56152				-311.26443	1485.50952	-878.52606	-5.73845	1502.68079	-1124.36353										88.18366	1199.38599	-1203.93372	-384.88080	1144.81384	-873.00055	94.37186	954.30615	-1145.39050	-294.17679	998.54266	-678.33508	-19.21466	913.20807	-1062.54187	-303.75378	909.46558	-975.02655				-15.63263	477.60553	-1066.53186	-357.16037	471.18439	-1094.85449	-79.04575	70.77338	-1064.95178	-324.07278	110.46279	-1300.60620	
229	2.280				-253.39160	1510.47095	-1167.97571				-310.51779	1485.96326	-876.92188	-4.37690	1503.06177	-1122.66663	-194.40503	972.09467	-1289.00000										-383.81918	1145.89941	-870.42163	95.55953	954.23737	-1141.22205	-293.78632	998.73804	-675.50940	-18.43182	913.24829	-1060.00854	-304.09338	910.20435	-972.49927				-13.55739	477.96802	-1061.25073	-358.05875	471.09497	-1088.73584	-79.67511	68.43355	-1064.29382	-326.13803	111.61380	-1297.78113	
230	2.290				-251.83571	1510.96008	-1166.37219				-309.72226	1486.16467	-874.46155	-2.90391	1502.54602	-1119.36694	-192.04883	972.69403	-1285.92847										-382.97528	1146.74841	-867.68542	97.59460	954.70197	-1136.33704	-293.50571	999.23987	-673.50677	-18.46374	913.16876	-1056.67896	-303.58466	910.22925	-970.68665				-11.85653	477.80792	-1057.24463	-360.53009	472.48734	-1082.87073	-79.39612	69.84023	-1064.72400	-327.12900	112.03858	-1298.07434	
231	2.300				-250.27055	1511.41504	-1164.40356				-308.99561	1486.56445	-872.48224	-193.71545	1401.28528	-829.80603	-190.19463	972.42529	-1282.56030										-381.52814	1147.60193	-865.14862	98.28139	954.11804	-1131.15857	-293.18448	999.54022	-671.20825	-17.95844	912.79449	-1053.67908	-304.02167	910.69330	-969.08356				-10.59726	478.03534	-1052.55261	-361.22665	472.24319	-1076.81897	-79.79227	69.38020	-1064.47803	-328.54297	112.17709	-1296.82471	
